<svg xmlns="http://www.w3.org/2000/svg" xml:space="preserve" id="Layer_1" x="0" y="0" style="enable-background:new 0 0 50 63" version="1.1" viewBox="0 0 50 63"><style type="text/css">.st1{fill:#00435d}.st2{fill:#fff}.st3{fill-rule:evenodd;clip-rule:evenodd;fill:#00435d}.st5{fill:#ec1245}.st5,.st6,.st7{display:none}.st6{fill:#fff}.st7{fill-rule:evenodd;clip-rule:evenodd}</style><path d="M38 26.7c4.8 0 8.8-.8 8.8-1.7 0-1-3.9-1.7-8.8-1.7-4.8 0-8.8.8-8.8 1.7s4 1.7 8.8 1.7zM10.5 61.3c4.8 0 8.8-.8 8.8-1.7 0-1-3.9-1.7-8.8-1.7-4.8 0-8.8.8-8.8 1.7s3.9 1.7 8.8 1.7z" style="fill:#cde7f6"/><path d="m39.5 23.2 6-10.3C48.8 7.2 44.7 0 38 0s-10.8 7.2-7.5 13l6 10.3c.7 1.1 2.3 1.1 3-.1z" class="st1"/><path d="M38 12c1.8 0 3.2-1.4 3.2-3.1s-1.4-3.2-3.1-3.2H38c-1.8 0-3.2 1.5-3.1 3.2 0 1.7 1.4 3.1 3.1 3.1z" class="st2"/><path d="M42 22.4c0-.2.2-.3.4-.3 1.8.2 3.4.5 4.5 1 .6.2 1 .5 1.4.7.3.3.6.6.6 1 0 .5-.4 1-1 1.3-.6.3-1.3.6-2.3.9-1.9.5-4.4.8-7.2.8s-5.4-.3-7.2-.8c-.9-.2-1.7-.5-2.3-.9-.5-.3-1-.8-1-1.3 0-.4.2-.7.5-1 .3-.3.7-.5 1.2-.7 1-.4 2.4-.8 4.1-1 .2 0 .4.1.4.3s-.1.4-.3.4c-1.6.2-3 .5-3.9.9-.5.2-.8.4-1 .6-.2.2-.3.4-.3.5 0 .2.1.4.6.7.5.3 1.2.6 2.1.8 1.8.5 4.3.8 7.1.8s5.3-.3 7.1-.8c.9-.2 1.6-.5 2.1-.8.5-.3.6-.6.6-.7 0-.1-.1-.3-.3-.5-.3-.2-.7-.4-1.2-.6-1.1-.4-2.6-.7-4.4-.9-.2-.1-.3-.2-.3-.4z" class="st3"/><path d="m11.5 57.8 6-10.3c3.4-5.8-.8-13-7.4-13s-10.8 7.2-7.4 13l6 10.3c.5 1.1 2.1 1.1 2.8 0z" class="st1"/><path d="M10 46.6c1.8 0 3.2-1.4 3.2-3.1 0-1.8-1.4-3.2-3.1-3.2H10c-1.8 0-3.2 1.5-3.1 3.2.1 1.7 1.4 3.1 3.1 3.1z" class="st2"/><path d="M14 56.9c0-.2.2-.3.4-.3 1.8.2 3.4.5 4.5 1 .6.2 1 .5 1.4.7.3.3.6.6.6 1 0 .5-.4 1-1 1.3-.6.3-1.3.6-2.3.9-1.9.5-4.4.8-7.2.8S5 62 3.2 61.5c-.9-.2-1.7-.5-2.3-.9-.5-.3-1-.8-1-1.3 0-.4.2-.7.5-1 .3-.3.7-.5 1.2-.7 1-.4 2.4-.8 4.1-1 .2 0 .4.1.4.3 0 .2-.1.4-.3.4-1.6.2-3 .5-3.9.9-.5.2-.8.4-1 .6-.2.2-.3.4-.3.5 0 .2.1.4.6.7.5.3 1.2.6 2.1.8 1.8.5 4.3.8 7.1.8s5.3-.3 7.1-.8c.9-.2 1.6-.5 2.1-.8.5-.3.6-.6.6-.7 0-.1-.1-.3-.3-.5-.3-.2-.7-.4-1.2-.6-1.1-.4-2.6-.7-4.4-.9-.2 0-.3-.2-.3-.4zm11.8-23.6c.2.1.2.3.2.4-.3.7-.5 1.5-.6 2.2 0 .2-.2.3-.4.3s-.3-.2-.3-.4c.1-.8.3-1.7.6-2.4.1-.1.3-.2.5-.1zm1 6.6c.1-.1.3-.2.5-.1.9.8 2.3 1.4 4.2 2 .2.1.3.2.2.4-.1.2-.2.3-.4.2-2-.6-3.4-1.3-4.4-2.1-.2-.1-.2-.3-.1-.4zm8.9 3.2c0-.2.2-.3.4-.3.7.1 1.5.2 2.4.3.7.1 1.3.1 2 .2.2 0 .3.2.3.4s-.2.3-.4.3c-.6-.1-1.3-.2-1.9-.2l-2.4-.3c-.3-.1-.4-.2-.4-.4zm8.3 1.2c0-.2.2-.3.4-.2 1.6.4 2.8 1 3.7 1.6.2.1.2.3.1.5s-.3.2-.5.1c-.8-.6-2-1.1-3.5-1.5-.2-.2-.3-.3-.2-.5zm5.7 4.5c.2 0 .3.2.3.4-.2 1.2-.9 2.4-2.1 3.5-.1.1-.3.1-.5 0-.1-.1-.1-.3 0-.5 1.1-1.1 1.8-2.1 1.9-3.1.1-.1.2-.3.4-.3zm-4.9 5.8c.1.2 0 .4-.1.5-1.2.7-2.3 1.2-3.6 1.7-.2.1-.4 0-.4-.2-.1-.2 0-.4.2-.4 1.2-.5 2.4-1.1 3.5-1.7.1-.1.3 0 .4.1zm-7.2 3.1c.1.2 0 .4-.2.4-1.3.4-2.6.7-3.9.9-.2 0-.4-.1-.4-.3s.1-.4.3-.4c1.3-.2 2.5-.6 3.8-.9.1 0 .3.1.4.3zm-7.7 1.6c0 .2-.1.3-.3.4-.7.1-1.3.1-2 .2-.2 0-.3-.1-.4-.3s.1-.3.3-.4c.7 0 1.3-.1 1.9-.2.3 0 .4.1.5.3zm-7.1.2c0-.2.2-.3.3-.3h2.2c.2 0 .3.1.3.3 0 .2-.1.3-.3.3h-2.2c-.1.1-.3-.1-.3-.3z" class="st3"/><path d="M-53.3 26.7c4.8 0 8.8-.8 8.8-1.7 0-1-3.9-1.7-8.8-1.7-4.8 0-8.8.8-8.8 1.7s4 1.7 8.8 1.7zm-27.6 34.6c4.8 0 8.8-.8 8.8-1.7 0-1-3.9-1.7-8.8-1.7-4.8 0-8.8.8-8.8 1.7s4 1.7 8.8 1.7z" style="display:none;fill:#b7f3e5"/><path d="m-51.8 23.2 6-10.3c3.4-5.8-.8-13-7.5-13s-10.8 7.2-7.5 13l6 10.3c.7 1.2 2.3 1.2 3 0z" class="st5"/><path d="M-53.3 12c1.8 0 3.2-1.4 3.2-3.1s-1.4-3.2-3.1-3.2h-.1c-1.8 0-3.2 1.5-3.1 3.2 0 1.7 1.4 3.1 3.1 3.1z" class="st6"/><path d="M-49.3 22.4c0-.2.2-.3.4-.3 1.8.2 3.4.5 4.5 1 .6.2 1 .5 1.4.7.3.3.6.6.6 1 0 .5-.4 1-1 1.3-.6.3-1.3.6-2.3.9-1.9.5-4.4.8-7.2.8s-5.4-.3-7.2-.8c-.9-.2-1.7-.5-2.3-.9-.5-.3-1-.8-1-1.3 0-.4.2-.7.5-1 .3-.3.7-.5 1.2-.7 1-.4 2.4-.8 4.1-1 .2 0 .4.1.4.3s-.1.4-.3.4c-1.6.2-3 .5-3.9.9-.5.2-.8.4-1 .6-.2.2-.3.4-.3.5 0 .2.1.4.6.7.5.3 1.2.6 2.1.8 1.8.5 4.3.8 7.1.8s5.3-.3 7.1-.8c.9-.2 1.6-.5 2.1-.8.5-.3.6-.6.6-.7 0-.1-.1-.3-.3-.5-.3-.2-.7-.4-1.2-.6-1.1-.4-2.6-.7-4.4-.9-.2-.1-.3-.2-.3-.4z" class="st7"/><path d="m-79.8 57.8 6-10.3c3.4-5.8-.8-13-7.4-13s-10.8 7.2-7.5 13l6 10.3c.6 1.1 2.2 1.1 2.9 0z" class="st5"/><path d="M-81.3 46.6c1.8 0 3.2-1.4 3.2-3.1s-1.4-3.2-3.1-3.2h-.1c-1.8 0-3.2 1.5-3.1 3.2.1 1.7 1.4 3.1 3.1 3.1z" class="st6"/><path d="M-77.3 56.9c0-.2.2-.3.4-.3 1.8.2 3.4.5 4.6 1 .6.2 1 .5 1.4.7.3.3.6.6.6 1 0 .5-.4 1-1 1.3-.6.3-1.3.6-2.3.9-1.9.5-4.4.8-7.2.8s-5.4-.3-7.2-.8c-.9-.2-1.7-.5-2.3-.9-.5-.3-1-.8-1-1.3 0-.4.2-.7.5-1 .3-.3.7-.5 1.2-.7 1-.4 2.4-.8 4.1-1 .2 0 .4.1.4.3s-.1.4-.3.4c-1.6.2-3 .5-3.9.9-.5.2-.8.4-1 .6-.2.2-.3.4-.3.5 0 .2.1.4.6.7.5.3 1.2.6 2.1.8 1.8.5 4.3.8 7.1.8s5.3-.3 7.1-.8c.9-.2 1.6-.5 2.1-.8.5-.3.6-.6.6-.7 0-.1-.1-.3-.3-.5-.3-.2-.7-.4-1.2-.6-1.1-.4-2.6-.7-4.4-.9-.3 0-.4-.2-.4-.4zm11.8-23.6c.2.1.2.3.2.4-.3.7-.5 1.5-.6 2.2 0 .2-.2.3-.4.3s-.3-.2-.3-.4c.1-.8.3-1.7.6-2.4.1-.1.3-.2.5-.1zm1 6.6c.1-.1.3-.2.5-.1.9.8 2.3 1.4 4.2 2 .2.1.3.2.2.4-.1.2-.2.3-.4.2-2-.6-3.4-1.3-4.4-2.1-.2-.1-.2-.3-.1-.4zm8.9 3.2c0-.2.2-.3.4-.3.7.1 1.5.2 2.4.3.7.1 1.3.1 2 .2.2 0 .3.2.3.4s-.2.3-.4.3c-.6-.1-1.3-.2-1.9-.2l-2.4-.3c-.3-.1-.4-.2-.4-.4zm8.3 1.2c0-.2.2-.3.4-.2 1.6.4 2.8 1 3.7 1.6.2.1.2.3.1.5s-.3.2-.5.1c-.8-.6-2-1.1-3.5-1.5-.2-.2-.3-.3-.2-.5zm5.7 4.5c.2 0 .3.2.3.4-.2 1.2-.9 2.4-2.1 3.5-.1.1-.3.1-.5 0-.1-.1-.1-.3 0-.5 1.1-1.1 1.8-2.1 1.9-3.1.1-.1.2-.3.4-.3zm-4.9 5.8c.1.2 0 .4-.1.5-1.2.7-2.3 1.2-3.6 1.7-.2.1-.4 0-.4-.2-.1-.2 0-.4.2-.4 1.2-.5 2.4-1.1 3.5-1.7.1-.1.3 0 .4.1zm-7.2 3.1c.1.2 0 .4-.2.4-1.3.4-2.6.7-3.9.9-.2 0-.4-.1-.4-.3s.1-.4.3-.4c1.3-.2 2.5-.6 3.8-.9.1 0 .3.1.4.3zm-7.7 1.6c0 .2-.1.3-.3.4-.7.1-1.3.1-2 .2-.2 0-.3-.1-.4-.3s.1-.3.3-.4c.7 0 1.3-.1 1.9-.2.3 0 .4.1.5.3zm-7.1.2c0-.2.2-.3.3-.3h2.2c.2 0 .3.1.3.3 0 .2-.1.3-.3.3h-2.2c-.1.1-.3-.1-.3-.3z" class="st7"/></svg>